# xmcd
#
# Track frame offsets: 
#        150
#        16610
#        35280
#        50817
#        68147
#        83680
#        105672
#        120395
#        135145
#        149370
#        163345
#        183345
#
# Disc length: 2628 seconds
#
# Revision: 0
# Processed by: cddbd v1.5.2PL0 Copyright (c) Steve Scherf et al.
# Submitted via: ExactAudioCopy v0.99pb4
#
DISCID=950a420c
DTITLE=Los Reyes - Gipsy Legend
DYEAR=1998
DGENRE=World
TTITLE0=Todos Ole
TTITLE1=Corazon Gitano
TTITLE2=Paradiso
TTITLE3=Noche Blanca
TTITLE4=Libiana
TTITLE5=Esperanza
TTITLE6=Avoir Un Ange
TTITLE7=Que Voy A Hacer
TTITLE8=Cuando Cuando Cuando
TTITLE9=La Catalana
TTITLE10=Sabor Caramelo
TTITLE11=Nada Mas
EXTD=
EXTT0=
EXTT1=
EXTT2=
EXTT3=
EXTT4=
EXTT5=
EXTT6=
EXTT7=
EXTT8=
EXTT9=
EXTT10=
EXTT11=
PLAYORDER=
